<svg width="42" height="42" viewBox="0 0 42 42" fill="none" xmlns="http://www.w3.org/2000/svg">
<path d="M22.5555 30.9734V31.3779C22.5555 31.5429 22.49 31.7012 22.3733 31.8179C22.2566 31.9346 22.0983 32.0001 21.9333 32.0001H20.6889C17.8835 32.0001 15.193 30.8857 13.2092 28.9019C11.2255 26.9182 10.1111 24.2277 10.1111 21.4223V20.1779C10.1111 20.0129 10.1766 19.8546 10.2933 19.7379C10.41 19.6212 10.5683 19.5557 10.7333 19.5557H13.2222C13.3872 19.5557 13.5455 19.6212 13.6622 19.7379C13.7789 19.8546 13.8444 20.0129 13.8444 20.1779V22.6668C13.8444 23.0152 13.6515 23.4819 13.4089 23.7246L12.0773 25.0561C13.0231 27.2961 14.8151 29.0881 17.0551 30.0339L18.3742 28.7148C18.6231 28.4659 19.0898 28.273 19.432 28.273H21.9333C22.0972 28.2746 22.2539 28.3409 22.3693 28.4574C22.4846 28.5739 22.5493 28.7313 22.5493 28.8952V30.9797L22.5555 30.9734Z" fill="white"/>
<path d="M17.8889 16.2093V11M23.2089 18.5245L27.1289 14.4729M25.7289 23.4444H31.8889" stroke="white" stroke-width="2"/>
</svg>
