<svg width="170" height="16" viewBox="0 0 170 16" fill="none" xmlns="http://www.w3.org/2000/svg">
<g clip-path="url(#clip0_633_522)">
<path d="M1.81575 5.00488H0V15.8237H6.7856V14.134H1.81575V5.00488Z" fill="white"/>
<path d="M13.3599 4.83691C10.4014 4.83691 8.05347 7.27936 8.05347 10.4185C8.05347 13.5576 10.3545 16.0001 13.4851 16.0001C15.3243 16.0001 16.827 15.2233 17.7349 14.2463L16.5687 12.949C15.8956 13.6377 14.8156 14.2463 13.4851 14.2463C11.5598 14.2463 10.104 12.7969 9.93183 10.875H18.5175C18.4784 7.0231 16.3183 4.83691 13.3599 4.83691ZM10.0179 9.24933C10.4014 7.60769 11.7085 6.54262 13.2503 6.54262C14.8547 6.5186 16.2087 7.47155 16.467 9.24933H10.0179Z" fill="white"/>
<path d="M32.2218 9.65754L31.3531 9.33722C30.1243 8.88076 29.8113 8.36024 29.8113 7.69558C29.8113 6.93482 30.5078 6.50238 31.314 6.50238C32.1201 6.50238 32.7306 6.91079 33.0671 7.63151L34.4837 6.79067C33.8263 5.46935 32.668 4.84473 31.314 4.84473C29.3886 4.84473 28.019 6.10198 28.019 7.7196C28.019 9.0169 28.6764 10.2101 30.5391 10.9228L31.3609 11.2431C32.6054 11.6996 33.161 12.148 33.161 12.9729C33.161 13.7977 32.3158 14.3342 31.2827 14.3342C30.1635 14.3342 29.4826 13.7897 28.9347 12.8447L27.4946 13.8377C28.3399 15.2872 29.6704 15.9999 31.2357 15.9999C33.5367 15.9999 34.9768 14.6385 34.9768 12.9088C34.9768 11.3072 34.022 10.3302 32.2297 9.66555L32.2218 9.65754Z" fill="white"/>
<path d="M36.3386 6.69457H39.7197V15.8237H41.5824V6.69457H44.9635V5.00488H36.3386V6.69457Z" fill="white"/>
<path d="M54.5432 12.084C54.1205 13.4453 53.1266 14.2461 51.6708 14.2461C50.0429 14.2461 49.0255 13.077 49.0255 11.4994V5.00488H47.2097V11.6035C47.2097 14.2862 48.8768 15.9919 51.2873 15.9919C52.5161 15.9919 53.7214 15.6475 54.5432 14.6065V15.8157H56.3589V5.00488H54.5432V12.084Z" fill="white"/>
<path d="M63.4654 5.00488H59.873V15.8237H63.4654C66.9326 15.8237 68.944 13.3973 68.944 10.4183C68.944 7.43932 66.9326 5.01289 63.4654 5.01289V5.00488ZM63.5046 14.0699H61.6888V6.75864H63.5046C65.7664 6.75864 67.0969 8.36024 67.0969 10.4183C67.0969 12.4764 65.7664 14.078 63.5046 14.078V14.0699Z" fill="white"/>
<path d="M73.5223 5.00488H71.7065V15.8237H73.5223V5.00488Z" fill="white"/>
<path d="M81.9515 4.83691C78.7583 4.83691 76.4573 7.30338 76.4573 10.4185C76.4573 13.5336 78.7583 16.0001 81.9515 16.0001C85.1447 16.0001 87.4301 13.5336 87.4301 10.4185C87.4301 7.30338 85.1291 4.83691 81.9515 4.83691ZM81.9515 14.2463C79.7992 14.2463 78.3356 12.5566 78.3356 10.4185C78.3356 8.28036 79.7914 6.59067 81.9515 6.59067C84.1116 6.59067 85.5439 8.28036 85.5439 10.4185C85.5439 12.5566 84.1038 14.2463 81.9515 14.2463Z" fill="white"/>
<path d="M103.083 6.58266C104.328 6.58266 105.282 7.14322 105.956 7.83992L107.122 6.54262C106.19 5.56564 104.836 4.83691 103.083 4.83691C99.9526 4.83691 97.6516 7.30338 97.6516 10.4185C97.6516 13.5336 99.9526 16.0001 103.083 16.0001C104.836 16.0001 106.19 15.2633 107.122 14.2944L105.956 12.9971C105.282 13.6938 104.328 14.2543 103.083 14.2543C101.009 14.2543 99.53 12.5646 99.53 10.4265C99.53 8.28837 101.009 6.59868 103.083 6.59868V6.58266Z" fill="white"/>
<path d="M116.85 12.084C116.427 13.4453 115.433 14.2461 113.978 14.2461C112.35 14.2461 111.332 13.077 111.332 11.4994V5.00488H109.517V11.6035C109.517 14.2862 111.184 15.9919 113.594 15.9919C114.823 15.9919 116.028 15.6475 116.85 14.6065V15.8157H118.666V5.00488H116.85V12.084Z" fill="white"/>
<path d="M124.121 5.00488H122.297V15.8237H129.083V14.134H124.121V5.00488Z" fill="white"/>
<path d="M135.767 4.83691C132.573 4.83691 130.272 7.30338 130.272 10.4185C130.272 13.5336 132.573 16.0001 135.767 16.0001C138.96 16.0001 141.245 13.5336 141.245 10.4185C141.245 7.30338 138.944 4.83691 135.767 4.83691ZM135.767 14.2463C133.614 14.2463 132.151 12.5566 132.151 10.4185C132.151 8.28036 133.607 6.59067 135.767 6.59067C137.927 6.59067 139.359 8.28036 139.359 10.4185C139.359 12.5566 137.919 14.2463 135.767 14.2463Z" fill="white"/>
<path d="M142.404 6.69457H145.785V15.8237H147.647V6.69457H151.028V5.00488H142.404V6.69457Z" fill="white"/>
<path d="M152.633 6.69457H156.022V15.8237H157.877V6.69457H161.265V5.00488H152.633V6.69457Z" fill="white"/>
<path d="M170 6.67067V4.997H166.885L169.053 2.01802L166.517 2.02603L167.065 0H165.202L164.31 3.06707L167.002 3.05906L166.486 4.997H163.253V15.7678H170V14.0941H165.061V11.2272H169.538V9.55355H165.061V6.67067H170Z" fill="white"/>
</g>
<defs>
<clipPath id="clip0_633_522">
<rect width="170" height="16" fill="white"/>
</clipPath>
</defs>
</svg>
